<svg width="161" height="30" viewBox="0 0 161 30" fill="white" xmlns="http://www.w3.org/2000/svg">
    <path d="M25.4264 12.5142C25.4264 12.5032 25.4245 12.4904 25.4245 12.4794C25.4227 12.4574 25.419 12.4372 25.4154 12.4152C25.4135 12.4023 25.4117 12.3877 25.408 12.3748C25.4044 12.3565 25.3989 12.34 25.3952 12.3217C25.3915 12.3052 25.386 12.2886 25.3824 12.2721C25.3787 12.2575 25.3714 12.2446 25.3677 12.23C25.3604 12.2116 25.353 12.1915 25.3457 12.1731C25.3402 12.1621 25.3347 12.1493 25.3292 12.1383C25.32 12.1181 25.309 12.0979 25.298 12.0796C25.2962 12.0759 25.2943 12.0723 25.2925 12.0686C25.287 12.0594 25.2815 12.0521 25.276 12.0429C25.265 12.0264 25.254 12.0081 25.243 11.9916C25.2338 11.9769 25.2228 11.9641 25.2118 11.9512C25.2008 11.9384 25.1916 11.9255 25.1806 11.9127C25.1678 11.898 25.155 11.8834 25.1421 11.8705C25.133 11.8595 25.122 11.8504 25.1128 11.8412C25.0981 11.8265 25.0834 11.8137 25.0688 11.8008C25.0578 11.7917 25.0486 11.7825 25.0376 11.7733C25.0229 11.7605 25.0064 11.7495 24.9917 11.7385C24.9789 11.7293 24.9661 11.7202 24.9532 11.7128C24.9386 11.7036 24.9239 11.6945 24.9092 11.6853C24.8946 11.6761 24.878 11.6688 24.8634 11.6596C24.8505 11.6523 24.8359 11.6468 24.823 11.6395C24.8047 11.6321 24.7882 11.623 24.7699 11.6156C24.757 11.6101 24.7442 11.6065 24.7313 11.601C24.713 11.5936 24.6928 11.5881 24.6727 11.5826C24.6598 11.5789 24.6451 11.5753 24.6323 11.5716C24.614 11.5679 24.5938 11.5624 24.5755 11.5588C24.559 11.5551 24.5425 11.5533 24.5259 11.5514C24.5094 11.5496 24.4929 11.5478 24.4746 11.5459C24.4544 11.5441 24.4343 11.5441 24.4141 11.5423C24.4049 11.5423 24.3939 11.5404 24.3847 11.5404C24.3811 11.5404 24.3774 11.5404 24.3737 11.5404C24.3517 11.5404 24.3297 11.5423 24.3077 11.5441C24.2949 11.5459 24.282 11.5459 24.2692 11.5478C24.249 11.5496 24.2289 11.5533 24.2087 11.5569C24.194 11.5588 24.1793 11.5606 24.1647 11.5643C24.1482 11.5679 24.1317 11.5734 24.1152 11.5771C24.0987 11.5826 24.0803 11.5863 24.0638 11.5918C24.051 11.5955 24.0381 11.601 24.0235 11.6065C24.0033 11.6138 23.9831 11.6211 23.9648 11.6303C23.9538 11.6358 23.9428 11.6413 23.9299 11.6468C23.9098 11.656 23.8896 11.667 23.8694 11.678C23.8658 11.6798 23.8621 11.6816 23.8584 11.6835L16.048 16.1929L14.1243 15.0816C14.062 15.0449 14.062 14.9551 14.1243 14.9202L24.9056 8.69613C25.2301 8.50908 25.4319 8.16065 25.4319 7.78654C25.4319 7.4106 25.232 7.064 24.9056 6.87695L13.2404 0.141207C13.2367 0.139373 13.2349 0.139373 13.2312 0.137539C13.1946 0.117367 13.1561 0.0971942 13.1157 0.0806895C13.112 0.0788557 13.1102 0.0788557 13.1065 0.0770218C13.0717 0.062351 13.035 0.0513479 12.9965 0.0403448C12.9855 0.0366771 12.9745 0.0348432 12.9653 0.0330094C12.9342 0.0256739 12.903 0.0201724 12.8718 0.0146708C12.8608 0.012837 12.8498 0.0110031 12.8388 0.00916926C12.7985 0.00366771 12.7581 0 12.7159 0C12.6738 0 12.6316 0.00366771 12.5912 0.00733541C12.5802 0.00916926 12.5711 0.0110031 12.5601 0.012837C12.527 0.0183385 12.4959 0.0238401 12.4647 0.0311755C12.4537 0.0330094 12.4445 0.0366771 12.4335 0.0385109C12.395 0.049514 12.3583 0.062351 12.3217 0.0770218C12.3198 0.0788557 12.3162 0.0788557 12.3143 0.0788557C12.274 0.0953604 12.2355 0.113699 12.1988 0.135705C12.1951 0.137539 12.1933 0.137539 12.1896 0.139373L0.526316 6.87511C0.520814 6.87878 0.515313 6.88245 0.509811 6.88612C0.480469 6.90262 0.452962 6.92096 0.427288 6.94113C0.418118 6.94847 0.408949 6.95397 0.39978 6.96131C0.366771 6.98698 0.335595 7.01449 0.308087 7.042C0.306253 7.04383 0.30442 7.0475 0.302586 7.04933C0.275078 7.07684 0.251238 7.10618 0.227398 7.13552C0.220062 7.14469 0.212727 7.15386 0.207225 7.16303C0.188887 7.1887 0.170548 7.21621 0.154044 7.24372C0.148542 7.25105 0.143041 7.26022 0.139373 7.26756C0.1192 7.30424 0.0990281 7.34091 0.0825234 7.38126C0.0825234 7.38126 0.0825234 7.38126 0.0825234 7.38309C0.0660187 7.41977 0.0531817 7.46011 0.0421786 7.49862C0.0385109 7.50963 0.0348432 7.5188 0.0330094 7.5298C0.0256739 7.56098 0.0183385 7.59215 0.0146708 7.62516C0.012837 7.63616 0.0110031 7.64717 0.00916926 7.65817C0.00366771 7.70035 0 7.74253 0 7.78471V17.3794C0 17.6618 0.100862 17.9406 0.300752 18.1423C0.507977 18.3514 0.779387 18.4559 1.0508 18.4559C1.23235 18.4559 1.4139 18.4082 1.57711 18.3147L9.38199 13.8089L11.3057 14.9202C11.3681 14.9569 11.3681 15.0468 11.3057 15.0816L0.526316 21.3057C0.19989 21.4928 0 21.8412 0 22.2153C0 22.5912 0.19989 22.9378 0.526316 23.1249L12.1896 29.8588C12.3528 29.9523 12.5344 30 12.7159 30C12.8975 30 13.079 29.9523 13.2423 29.8588L24.9056 23.1249C24.9111 23.1212 24.9166 23.1175 24.9221 23.1139C24.9514 23.0974 24.9789 23.079 25.0046 23.0589C25.0138 23.0515 25.0229 23.046 25.0321 23.0387C25.0651 23.013 25.0944 22.9873 25.1238 22.958C25.1256 22.9562 25.1275 22.9525 25.1293 22.9507C25.1568 22.9232 25.1806 22.8938 25.2045 22.8645C25.2118 22.8553 25.2191 22.8461 25.2246 22.837C25.243 22.8113 25.2613 22.7838 25.2778 22.7563C25.2833 22.7489 25.2888 22.7398 25.2925 22.7324C25.3127 22.6958 25.3328 22.6591 25.3493 22.6187C25.3493 22.6187 25.3493 22.6187 25.3493 22.6169C25.3659 22.5784 25.3787 22.5399 25.3897 22.5014C25.3934 22.4922 25.3952 22.4812 25.397 22.4702C25.4044 22.439 25.4117 22.4079 25.4154 22.3748C25.4172 22.3638 25.419 22.3528 25.4209 22.3418C25.4264 22.2997 25.43 22.2575 25.43 22.2153V12.5949C25.43 12.5912 25.43 12.5876 25.43 12.5839C25.43 12.5619 25.4282 12.5381 25.4264 12.5142ZM23.3284 14.4159V20.3961L18.1496 17.4069L23.3284 14.4159ZM11.6633 2.87181V10.066L9.38199 11.3827L3.15239 7.78471L11.6633 2.87181ZM2.1016 15.5859V9.60572L7.2804 12.5949L2.1016 15.5859ZM13.2404 11.5808C13.2496 11.5753 13.2569 11.5698 13.2661 11.5643C13.2826 11.5533 13.3009 11.5423 13.3174 11.5313C13.3321 11.5221 13.3449 11.5111 13.3578 11.5019C13.3706 11.4909 13.3835 11.4818 13.3963 11.4707C13.411 11.4579 13.4256 11.4451 13.4385 11.4322C13.4495 11.4231 13.4586 11.4121 13.4696 11.4029C13.4843 11.3882 13.4972 11.3736 13.51 11.3589C13.5192 11.3479 13.5283 11.3387 13.5357 11.3277C13.5485 11.313 13.5595 11.2965 13.5705 11.28C13.5797 11.2672 13.587 11.2562 13.5962 11.2434C13.6054 11.2287 13.6145 11.214 13.6237 11.1975C13.6329 11.1828 13.6402 11.1682 13.6494 11.1517C13.6567 11.137 13.6622 11.1242 13.6695 11.1095C13.6769 11.093 13.6842 11.0746 13.6915 11.0563C13.697 11.0435 13.7007 11.0306 13.7062 11.016C13.7136 10.9976 13.7191 10.9793 13.7246 10.9591C13.7282 10.9444 13.7319 10.9316 13.7356 10.9169C13.7392 10.8986 13.7447 10.8802 13.7484 10.8619C13.7521 10.8454 13.7539 10.8271 13.7557 10.8106C13.7576 10.7941 13.7594 10.7794 13.7612 10.7629C13.7631 10.7409 13.7631 10.7207 13.7649 10.6987C13.7649 10.6895 13.7667 10.6804 13.7667 10.6712V2.87181L22.2776 7.78654L12.8076 13.2514C12.7489 13.2844 12.6793 13.2844 12.6206 13.2514L11.4836 12.5949L13.2404 11.5808ZM12.8076 16.7486L13.9446 17.4051L12.1878 18.4192C11.8632 18.6063 11.6615 18.9547 11.6615 19.3288V27.1025C11.6615 27.1117 11.6633 27.1209 11.6633 27.13L3.15056 22.2153L12.6187 16.7486C12.6793 16.7156 12.7508 16.7156 12.8076 16.7486ZM13.7649 27.13C13.7649 27.1209 13.7667 27.1117 13.7667 27.1025V19.9358L16.048 18.6191L22.2776 22.2153L13.7649 27.13Z"
          fill="#F9F9FB" opacity="0.8"></path>
    <path d="M32.7856 22.725V7.27664C32.7856 7.22163 32.8314 7.17578 32.8864 7.17578H35.9416C35.9967 7.17578 36.0425 7.22163 36.0425 7.27664V22.725C36.0425 22.78 35.9967 22.8259 35.9416 22.8259H32.8864C32.8314 22.824 32.7856 22.78 32.7856 22.725Z"
          fill="#F9F9FB" opacity="0.8"></path>
    <path d="M48.1 13.1725C47.7351 12.5215 47.2289 12.0135 46.5779 11.6504C45.9269 11.2873 45.1677 11.1039 44.2984 11.1039C43.5007 11.1039 42.8038 11.2689 42.2078 11.5972C41.7237 11.8649 41.3496 12.2519 41.0837 12.7562V11.456C41.0837 11.401 41.0378 11.3551 40.9828 11.3551H38.243C38.188 11.3551 38.1422 11.401 38.1422 11.456V22.725C38.1422 22.78 38.188 22.8259 38.243 22.8259H41.1937C41.2487 22.8259 41.2946 22.78 41.2946 22.725V16.125C41.2946 15.6775 41.3826 15.2924 41.5568 14.9696C41.731 14.6469 41.9804 14.3956 42.3032 14.2141C42.6259 14.0325 42.9891 13.9409 43.3962 13.9409C43.8161 13.9409 44.1847 14.0325 44.4983 14.2141C44.8137 14.3956 45.0576 14.6487 45.2337 14.9696C45.4079 15.2924 45.4959 15.6775 45.4959 16.125V22.725C45.4959 22.78 45.5418 22.8259 45.5968 22.8259H48.5475C48.6025 22.8259 48.6483 22.78 48.6483 22.725V15.4519C48.6465 14.5845 48.4649 13.8235 48.1 13.1725Z"
          fill="#F9F9FB" opacity="0.8"></path>
    <path d="M63.7923 23.0771C62.6572 23.0771 61.6247 22.8185 60.6931 22.2996C59.7615 21.7824 59.0188 21.0709 58.4668 20.1668C57.913 19.2627 57.6361 18.2376 57.6361 17.0896C57.6361 15.9269 57.913 14.8981 58.4668 14.0014C59.0206 13.1046 59.7615 12.3986 60.6931 11.8796C61.6247 11.3625 62.6572 11.1021 63.7923 11.1021C64.9275 11.1021 65.9563 11.3606 66.8805 11.8796C67.8048 12.3986 68.5438 13.1046 69.0977 14.0014C69.6515 14.8981 69.9266 15.9269 69.9266 17.0896C69.9266 18.2376 69.6496 19.2627 69.0977 20.1668C68.5438 21.069 67.8066 21.7806 66.8805 22.2996C65.9563 22.8185 64.9275 23.0771 63.7923 23.0771ZM63.7923 20.242C64.3663 20.242 64.867 20.1099 65.2942 19.8422C65.7215 19.5763 66.0571 19.2058 66.3029 18.729C66.5486 18.2522 66.6696 17.7076 66.6696 17.0914C66.6696 16.4752 66.5468 15.9324 66.3029 15.463C66.0571 14.9935 65.7215 14.623 65.2942 14.3498C64.867 14.0766 64.3663 13.9409 63.7923 13.9409C63.2183 13.9409 62.714 14.0766 62.2794 14.3498C61.8448 14.623 61.5055 14.9935 61.2598 15.463C61.014 15.9324 60.893 16.4752 60.893 17.0914C60.893 17.7076 61.0159 18.2541 61.2598 18.729C61.5055 19.2058 61.8448 19.5763 62.2794 19.8422C62.714 20.1081 63.2183 20.242 63.7923 20.242Z"
          fill="#F9F9FB" opacity="0.8"></path>
    <path d="M103.16 14.5387C102.907 13.8602 102.54 13.2605 102.057 12.7433C101.575 12.2262 100.983 11.8228 100.282 11.5348C99.5818 11.2488 98.7767 11.1039 97.8671 11.1039C96.7741 11.1039 95.7949 11.3625 94.9256 11.8814C94.0564 12.4004 93.3668 13.1064 92.857 14.0032C92.3454 14.9 92.0905 15.9214 92.0905 17.0694C92.0905 18.1752 92.3362 19.1838 92.8258 20.0934C93.3155 21.003 94.0087 21.7292 94.9054 22.2684C95.8022 22.8075 96.8585 23.0771 98.0762 23.0771C98.8611 23.0771 99.5818 22.9616 100.24 22.7305C100.898 22.4994 101.469 22.173 101.951 21.7531C102.408 21.3551 102.749 20.8948 102.974 20.3722C102.996 20.3227 102.973 20.264 102.923 20.2401L100.572 19.1233C100.526 19.1013 100.471 19.1197 100.445 19.1618C100.225 19.5176 99.9302 19.8 99.5561 20.0091C99.1563 20.2328 98.6777 20.3447 98.1165 20.3447C97.5003 20.3447 96.974 20.2071 96.5412 19.9357C96.1066 19.6625 95.7857 19.281 95.5748 18.7914C95.4813 18.5732 95.4152 18.3384 95.3731 18.089C95.3639 18.0285 95.4116 17.9717 95.4739 17.9717H103.315C103.359 17.9717 103.4 17.9442 103.413 17.9038C103.457 17.7644 103.488 17.6012 103.504 17.416C103.525 17.1996 103.536 16.9777 103.536 16.754C103.539 15.9563 103.413 15.2172 103.16 14.5387ZM95.5711 15.6628C95.5069 15.6628 95.4574 15.6005 95.4739 15.5381C95.5033 15.4208 95.5381 15.3071 95.5785 15.2007C95.7747 14.6836 96.0681 14.2911 96.4605 14.0252C96.853 13.7593 97.3224 13.6254 97.8671 13.6254C98.4264 13.6254 98.8996 13.7611 99.2847 14.0344C99.6698 14.3076 99.9394 14.6781 100.093 15.1475C100.136 15.2759 100.165 15.4098 100.185 15.5473C100.194 15.6078 100.145 15.661 100.084 15.661H95.5711V15.6628Z"
          fill="#F9F9FB" opacity="0.8"></path>
    <path d="M117.277 16.3029C117.108 15.7784 116.8 15.2906 116.352 14.8431C116.187 14.6781 115.997 14.5222 115.782 14.3755C115.993 14.1701 116.169 13.9519 116.31 13.719C116.688 13.0955 116.877 12.4408 116.877 11.7549C116.877 10.7885 116.673 9.9669 116.268 9.28655C115.861 8.60802 115.274 8.08537 114.504 7.72227C113.734 7.35733 112.809 7.17578 111.731 7.17578H105.215C105.16 7.17578 105.115 7.22163 105.115 7.27664V22.725C105.115 22.78 105.16 22.8259 105.215 22.8259H111.731C113.552 22.8259 114.973 22.3986 115.995 21.544C117.016 20.6894 117.528 19.4919 117.528 17.9515C117.53 17.3775 117.445 16.8273 117.277 16.3029ZM108.371 10.0072C108.371 9.95223 108.417 9.90639 108.472 9.90639H111.964C112.468 9.90639 112.87 10.0494 113.172 10.3373C113.473 10.6253 113.624 11.0067 113.624 11.4817C113.624 11.9585 113.473 12.3399 113.172 12.626C112.872 12.9139 112.468 13.0569 111.964 13.0569H108.472C108.417 13.0569 108.371 13.0111 108.371 12.9561V10.0072ZM113.684 19.4223C113.292 19.8 112.767 19.9889 112.109 19.9889H108.47C108.415 19.9889 108.37 19.9431 108.37 19.888V15.9929C108.37 15.9379 108.415 15.8921 108.47 15.8921H112.109C112.767 15.8921 113.292 16.081 113.684 16.4587C114.077 16.8365 114.273 17.3335 114.273 17.9497C114.273 18.553 114.077 19.0445 113.684 19.4223Z"
          fill="#F9F9FB" opacity="0.8"></path>
    <path d="M119.105 22.725V7.27664C119.105 7.22163 119.151 7.17578 119.206 7.17578H122.157C122.212 7.17578 122.257 7.22163 122.257 7.27664V22.725C122.257 22.78 122.212 22.8259 122.157 22.8259H119.206C119.151 22.824 119.105 22.78 119.105 22.725Z"
          fill="#F9F9FB" opacity="0.8"></path>
    <path d="M129.987 23.0771C128.852 23.0771 127.819 22.8185 126.888 22.2996C125.956 21.7824 125.214 21.0709 124.662 20.1668C124.108 19.2627 123.831 18.2376 123.831 17.0896C123.831 15.9269 124.108 14.8981 124.662 14.0014C125.215 13.1046 125.956 12.3986 126.888 11.8796C127.819 11.3625 128.852 11.1021 129.987 11.1021C131.122 11.1021 132.151 11.3606 133.075 11.8796C134 12.3986 134.739 13.1046 135.292 14.0014C135.846 14.8981 136.121 15.9269 136.121 17.0896C136.121 18.2376 135.844 19.2627 135.292 20.1668C134.739 21.069 134.001 21.7806 133.075 22.2996C132.151 22.8185 131.122 23.0771 129.987 23.0771ZM129.987 20.242C130.561 20.242 131.062 20.1099 131.489 19.8422C131.916 19.5763 132.252 19.2058 132.498 18.729C132.743 18.2522 132.864 17.7076 132.864 17.0914C132.864 16.4752 132.742 15.9324 132.498 15.463C132.252 14.9935 131.916 14.623 131.489 14.3498C131.062 14.0766 130.561 13.9409 129.987 13.9409C129.413 13.9409 128.909 14.0766 128.474 14.3498C128.04 14.623 127.7 14.9935 127.455 15.463C127.209 15.9324 127.088 16.4752 127.088 17.0914C127.088 17.7076 127.211 18.2541 127.455 18.729C127.7 19.2058 128.04 19.5763 128.474 19.8422C128.909 20.1081 129.413 20.242 129.987 20.242Z"
          fill="#F9F9FB" opacity="0.8"></path>
    <path d="M143.264 23.0771C142.116 23.0771 141.084 22.8149 140.165 22.2886C139.248 21.7641 138.52 21.0452 137.981 20.1356C137.442 19.226 137.172 18.2027 137.172 17.0694C137.172 15.9361 137.438 14.9165 137.97 14.0124C138.502 13.1101 139.23 12.3986 140.154 11.8796C141.078 11.3625 142.114 11.1021 143.262 11.1021C144.117 11.1021 144.907 11.2488 145.635 11.5422C146.363 11.8356 146.987 12.2464 147.504 12.7709C148.001 13.2733 148.362 13.8638 148.588 14.5405C148.604 14.59 148.579 14.6451 148.531 14.6652L145.982 15.7637C145.929 15.7857 145.87 15.76 145.85 15.705C145.65 15.1769 145.329 14.7551 144.887 14.4397C144.418 14.1041 143.875 13.9354 143.259 13.9354C142.712 13.9354 142.226 14.0692 141.799 14.3351C141.372 14.601 141.036 14.9733 140.79 15.4483C140.545 15.9251 140.424 16.4716 140.424 17.0877C140.424 17.7039 140.546 18.2504 140.79 18.7254C141.036 19.2022 141.372 19.5726 141.799 19.8385C142.226 20.1044 142.712 20.2383 143.259 20.2383C143.889 20.2383 144.434 20.0696 144.898 19.734C145.333 19.4186 145.65 18.9968 145.85 18.4686C145.87 18.4155 145.931 18.3879 145.984 18.4118L148.533 19.5286C148.58 19.5488 148.606 19.6038 148.59 19.6533C148.375 20.2897 148.021 20.8637 147.526 21.3716C147.007 21.9034 146.384 22.3197 145.657 22.6205C144.929 22.9267 144.132 23.0771 143.264 23.0771Z"
          fill="#F9F9FB" opacity="0.8"></path>
    <path d="M160.451 22.6718L156.444 16.0406C156.422 16.0021 156.426 15.9544 156.455 15.9214L160.412 11.5238C160.471 11.4597 160.425 11.357 160.337 11.357H156.721C156.693 11.357 156.666 11.368 156.647 11.3881L152.861 15.4116C152.835 15.4373 152.791 15.4208 152.791 15.3841V7.27847C152.791 7.22346 152.745 7.17761 152.69 7.17761H149.739C149.684 7.17761 149.638 7.22346 149.638 7.27847V22.7269C149.638 22.7819 149.684 22.8277 149.739 22.8277H152.69C152.745 22.8277 152.791 22.7819 152.791 22.7269V19.3562C152.791 19.3306 152.8 19.3067 152.817 19.2884L153.966 18.0359C154.012 17.9863 154.093 17.9937 154.126 18.0524L156.941 22.7782C156.959 22.8094 156.992 22.8277 157.027 22.8277H160.363C160.444 22.824 160.491 22.7397 160.451 22.6718Z"
          fill="#F9F9FB" opacity="0.8"></path>
    <path d="M56.5871 13.9867V11.456C56.5871 11.401 56.5412 11.3552 56.4862 11.3552H53.9977C53.9427 11.3552 53.8968 11.3093 53.8968 11.2543V8.85196C53.8968 8.79694 53.851 8.7511 53.796 8.7511H50.8453C50.7903 8.7511 50.7444 8.79694 50.7444 8.85196V9.591V14.0858V15.9801V18.6851C50.7444 20.0293 51.1259 21.0764 51.8888 21.8246C52.6516 22.5747 53.7263 22.9488 55.1127 22.9488C55.3511 22.9488 55.6023 22.9341 55.8682 22.9066C56.0974 22.8828 56.3083 22.8589 56.4954 22.8333C56.5449 22.8259 56.5816 22.7837 56.5816 22.7342V20.2659C56.5816 20.2072 56.5284 20.1595 56.4697 20.1668C56.3707 20.1778 56.2753 20.187 56.1818 20.198C56.0553 20.2127 55.9434 20.2182 55.8462 20.2182C55.4116 20.2182 55.0485 20.1558 54.7532 20.0293C54.4598 19.9028 54.2416 19.7102 54.1022 19.4516C53.9628 19.1931 53.8913 18.8666 53.8913 18.4742V14.1866C53.8913 14.1316 53.9372 14.0858 53.9922 14.0858H56.4807C56.5431 14.0858 56.5871 14.0418 56.5871 13.9867Z"
          fill="#F9F9FB" opacity="0.8"></path>
    <path d="M68.9784 10.0109H71.9273C71.9823 10.0109 72.0281 10.0568 72.0281 10.1118V22.725C72.0281 22.78 72.074 22.8259 72.129 22.8259H75.1842C75.2392 22.8259 75.2851 22.78 75.2851 22.725V10.1118C75.2851 10.0568 75.3309 10.0109 75.3859 10.0109H78.3348C78.3898 10.0109 78.4356 9.96507 78.4356 9.91006V7.27664C78.4356 7.22163 78.3898 7.17578 78.3348 7.17578H68.9784C68.9234 7.17578 68.8776 7.22163 68.8776 7.27664V9.91189C68.8776 9.9669 68.9234 10.0109 68.9784 10.0109Z"
          fill="#F9F9FB" opacity="0.8"></path>
    <path d="M89.9687 13.1725C89.6038 12.5215 89.0976 12.0135 88.4466 11.6504C87.7956 11.2873 87.0364 11.1039 86.1671 11.1039C85.3694 11.1039 84.6725 11.2689 84.0765 11.5972C83.7923 11.7549 83.5465 11.953 83.3375 12.1914C83.277 12.2611 83.1633 12.217 83.1633 12.1254V7.27664C83.1633 7.22163 83.1174 7.17578 83.0624 7.17578H80.1117C80.0567 7.17578 80.0109 7.22163 80.0109 7.27664V10.0128V10.9829V22.7269C80.0109 22.7819 80.0567 22.8277 80.1117 22.8277H83.0624C83.1174 22.8277 83.1633 22.7819 83.1633 22.7269V16.125C83.1633 15.6775 83.2513 15.2924 83.4255 14.9697C83.5997 14.6469 83.8491 14.3957 84.1719 14.2141C84.4946 14.0326 84.8577 13.9409 85.2649 13.9409C85.6848 13.9409 86.0534 14.0326 86.367 14.2141C86.6824 14.3957 86.9263 14.6487 87.1024 14.9697C87.2766 15.2924 87.3646 15.6775 87.3646 16.125V22.725C87.3646 22.78 87.4105 22.8259 87.4655 22.8259H90.4161C90.4712 22.8259 90.517 22.78 90.517 22.725V15.452C90.5133 14.5845 90.3318 13.8235 89.9687 13.1725Z"
          fill="#F9F9FB" opacity="0.8"></path>
</svg>